# xmcd CD database file
#
# Track frame offsets:
#	150
#	18839
#	46581
#	77820
#	99889
#	126051
#	164978
#	172131
#	195721
#	242801
#
# Disc length: 3506 seconds
#
# Revision: 0
# Processed by: cddbd v1.5.2PL0 Copyright (c) Steve Scherf et al.
# Submitted via: CDex 1.70beta2
#
DISCID=7c0db00a
DTITLE=Jacques Kuba Seguin - The Odd Lot
DYEAR=2010
DGENRE=Jazz
TTITLE0=Balkans
TTITLE1=Szalone Tango
TTITLE2=The Gospel
TTITLE3=Podroz(voyage)
TTITLE4=Tsunami
TTITLE5=Sroda...
TTITLE6=Tango Kino
TTITLE7=Praha
TTITLE8=Byla Sobie Baba Jaga
TTITLE9=closing
EXTD=YEAR: 2010
EXTT0=
EXTT1=
EXTT2=
EXTT3=
EXTT4=
EXTT5=
EXTT6=
EXTT7=
EXTT8=
EXTT9=
PLAYORDER=
